# xmcd
#
# Track frame offsets:
#	150
#	16160
#	35761
#	46309
#	67840
#	79279
#	95042
#	110944
#	131783
#	143444
#	159656
#	176440
#	191114
#	212784
#	234172
#	249349
#	263104
#	277660
#	294996
#	315169
#
# Disc length: 4429 seconds
#
# Revision: 5
# Processed by: cddbd v1.5.2PL0 Copyright (c) Steve Scherf et al.
# Submitted via: EasyCDDAExtractor 12.0.4.1
#
DISCID=14114b14
DTITLE=Willie Nelson - Evergreens
DYEAR=1998
DGENRE=Country
TTITLE0=For All the Girls I've Loved Before (with J. Iglesias)
TTITLE1=Georgia on My Mind
TTITLE2=Blue Eyes Crying in the Rain
TTITLE3=Pancho and Lefty (with M. Haggard)
TTITLE4=Mona Lisa
TTITLE5=Let It Be Me
TTITLE6=Always on My Mind
TTITLE7=Bridge Over Troubled Water
TTITLE8=On the Sunny Side of the Street
TTITLE9=Over the Rainbow
TTITLE10=Golden Earrings
TTITLE11=Everything's Beautiful (In It's Own Way) (with Dolly Parton)
TTITLE12=City of New Orleans
TTITLE13=They All Went to Mexico (with C. Santana)
TTITLE14=Living in the Promiseland
TTITLE15=Highway Man (with J. Cash, M. Haggard and K. Kristofferson)
TTITLE16=Summer of Roses
TTITLE17=Seven Spanish Angels (with Ray Charles)
TTITLE18=Angel Flying Too Close to the Ground
TTITLE19=Take It to the Limit (with W. Jennings)
EXTD=
EXTT0=
EXTT1=
EXTT2=
EXTT3=
EXTT4=
EXTT5=
EXTT6=
EXTT7=
EXTT8=
EXTT9=
EXTT10=
EXTT11=
EXTT12=
EXTT13=
EXTT14=
EXTT15=
EXTT16=
EXTT17=
EXTT18=
EXTT19=
PLAYORDER=
